<svg width="50" height="50" viewBox="0 0 50 50" fill="none" xmlns="http://www.w3.org/2000/svg">
<path d="M0 5C0 2.23858 2.23858 0 5 0H45C47.7614 0 50 2.23858 50 5V45C50 47.7614 47.7614 50 45 50H5C2.23858 50 0 47.7614 0 45V5Z" fill="black"/>
<path d="M8 22.52L12.296 5H16.856L21.2 22.52H17.528L16.688 18.56H12.512L11.672 22.52H8ZM13.112 15.68H16.064L15.224 11.456C15.112 10.848 14.992 10.248 14.864 9.656C14.752 9.048 14.664 8.576 14.6 8.24C14.536 8.576 14.448 9.04 14.336 9.632C14.24 10.224 14.128 10.824 14 11.432L13.112 15.68Z" fill="white"/>
<path d="M29.408 22.52V5H33.464L35.024 10.52C35.2 11.096 35.328 11.6 35.408 12.032C35.504 12.464 35.56 12.768 35.576 12.944C35.592 12.768 35.64 12.464 35.72 12.032C35.816 11.6 35.944 11.096 36.104 10.52L37.712 5H41.792V22.52H38.504V15.8C38.504 14.04 38.568 12.464 38.696 11.072C38.84 9.68 38.976 8.376 39.104 7.16L37.064 15.08H34.064L32.024 7.448C32.168 8.488 32.312 9.68 32.456 11.024C32.616 12.368 32.696 13.96 32.696 15.8V22.52H29.408Z" fill="white"/>
<path d="M14.5998 44.76C13.4318 44.76 12.4158 44.544 11.5518 44.112C10.6878 43.664 10.0158 43.048 9.53584 42.264C9.07184 41.464 8.83984 40.536 8.83984 39.48V32.04C8.83984 30.984 9.07184 30.064 9.53584 29.28C10.0158 28.48 10.6878 27.864 11.5518 27.432C12.4158 26.984 13.4318 26.76 14.5998 26.76C15.7838 26.76 16.7998 26.984 17.6478 27.432C18.5118 27.864 19.1758 28.48 19.6398 29.28C20.1198 30.064 20.3598 30.984 20.3598 32.04V39.48C20.3598 40.536 20.1198 41.464 19.6398 42.264C19.1758 43.048 18.5118 43.664 17.6478 44.112C16.7998 44.544 15.7838 44.76 14.5998 44.76ZM14.5998 41.64C16.0398 41.64 16.7598 40.92 16.7598 39.48V32.04C16.7598 30.6 16.0398 29.88 14.5998 29.88C13.1598 29.88 12.4398 30.6 12.4398 32.04V39.48C12.4398 40.92 13.1598 41.64 14.5998 41.64Z" fill="white"/>
<path d="M35.3599 32.4C34.7359 32.4 34.2159 32.2 33.7999 31.8C33.3999 31.384 33.1999 30.864 33.1999 30.24C33.1999 29.616 33.3999 29.104 33.7999 28.704C34.2159 28.288 34.7359 28.08 35.3599 28.08H35.8399C36.4639 28.08 36.9759 28.288 37.3759 28.704C37.7919 29.104 37.9999 29.616 37.9999 30.24C37.9999 30.864 37.7919 31.384 37.3759 31.8C36.9759 32.2 36.4639 32.4 35.8399 32.4H35.3599ZM31.8799 45.36L33.7999 37.896H38.1199L34.9999 45.36H31.8799Z" fill="white"/>
</svg>
